#!OML:ASF I:\Random Stuff\random\construction\7_22_03\Session 2\subj1.ASF
:FULLY-SPECIFIED
:DEGREES
3012
root 15.6334 17.5407 -9.21801 -302.17 -261.308 403.266
lowerback 16.8723 1.26251 -4.52849
upperback 3.80665 0.939452 -3.50779
thorax -5.3813 0.6205 -1.37156
lowerneck -21.6623 3.80393 6.85007
upperneck 37.7433 3.09522 3.35552
head 17.7235 3.12924 1.12067
rclavicle 6.36111e-015 3.02153e-014
rhumerus -21.7373 5.56825 -66.8428
rradius 103.623
rwrist -76.4855
rhand -29.2484 -4.53946
rfingers 7.12502
rthumb -2.59161 -34.5035
lclavicle 6.36111e-015 3.02153e-014
lhumerus -10.3667 -65.0921 81.5795
lradius 93.4863
lwrist 17.273
lhand -4.51602 44.041
lfingers 7.12502
lthumb 21.2584 72.8952
rfemur -16.315 0.618446 9.88364
rtibia 19.0215
rfoot 1.15586 -12.4644
rtoes -29.3332
lfemur -33.1878 8.29532 -8.1056
ltibia 29.7643
lfoot -7.8734 8.34307
ltoes -34.8989
3013
root 15.6241 17.5055 -9.00968 -303.97 -261.821 401.769
lowerback 16.4839 1.19881 -4.87207
upperback 4.23055 0.875235 -3.43231
thorax -4.72303 0.589993 -1.06452
lowerneck -21.8217 3.87667 6.71926
upperneck 37.5383 3.17891 3.41178
head 17.6462 3.13683 1.17901
rclavicle -5.56597e-015 2.8625e-014
rhumerus -21.8149 5.59758 -66.7764
rradius 103.42
rwrist -77.4336
rhand -30.2397 -3.44109
rfingers 7.12502
rthumb -3.54893 -33.3913
lclavicle -5.56597e-015 2.8625e-014
lhumerus -8.94511 -65.1001 80.2549
lradius 93.3481
lwrist 21.0975
lhand -3.35498 45.9392
lfingers 7.12502
lthumb 22.3732 74.6636
rfemur -16.3013 0.423364 9.76203
rtibia 19.678
rfoot -0.849334 -13.0265
rtoes -32.3674
lfemur -32.6343 8.03115 -7.76355
ltibia 29.3916
lfoot -7.54715 8.83637
ltoes -35.3228
3014
root 15.6054 17.4706 -8.78593 -305.809 -262.155 400.147
lowerback 16.4733 1.13005 -4.94379
upperback 4.3642 0.790569 -3.4163
thorax -4.57386 0.549224 -0.987111
lowerneck -21.7638 3.87466 6.41474
upperneck 37.4351 3.1529 3.77742
head 17.5573 3.1335 1.38492
rclavicle -1.59028e-015 -1.59028e-014
rhumerus -22.3685 5.36539 -66.9002
rradius 103.427
rwrist -78.4282
rhand -31.57 -2.24099
rfingers 7.12502
rthumb -4.83355 -32.1659
lclavicle -1.59028e-015 -1.59028e-014
lhumerus -8.59057 -65.4662 79.7614
lradius 93.208
lwrist 25.3667
lhand -2.73836 48.0738
lfingers 7.12502
lthumb 22.965 76.7259
rfemur -16.3557 -0.120732 9.98886
rtibia 20.2094
rfoot -2.72065 -12.5349
rtoes -34.1398
lfemur -32.2338 7.62081 -7.20751
ltibia 28.9725
lfoot -7.10679 9.44435
ltoes -36.3638
3015
root 15.5811 17.4417 -8.5493 -307.15 -262.253 398.949
lowerback 16.5736 1.03476 -4.81817
upperback 4.38121 0.68296 -3.3427
thorax -4.60768 0.495724 -0.959807
lowerneck -21.5465 3.91663 6.20097
upperneck 37.4004 3.21363 4.08489
head 17.4708 3.17433 1.56532
rclavicle -2.38542e-015 1.11319e-014
rhumerus -23.0953 4.92008 -67.1137
rradius 103.403
rwrist -78.6803
rhand -32.9247 -1.34034
rfingers 7.12502
rthumb -6.14155 -31.2313
lclavicle -2.38542e-015 1.11319e-014
lhumerus -8.87939 -66.0421 79.758
lradius 93.0294
lwrist 29.9903
lhand -3.04757 49.9889
lfingers 7.12502
lthumb 22.6683 78.6776
rfemur -16.493 -1.06942 10.6871
rtibia 20.6047
rfoot -4.02257 -11.932
rtoes -35.6228
lfemur -31.9557 7.03679 -6.33472
ltibia 28.5405
lfoot -6.57226 10.1583
ltoes -37.256
3016
root 15.5541 17.428 -8.30873 -307.184 -262.172 399.025
lowerback 16.6357 0.916496 -4.49338
upperback 4.44247 0.586477 -3.19352
thorax -4.57413 0.444465 -0.96481
lowerneck -21.3839 4.03271 6.22186
upperneck 37.3815 3.39541 4.09974
head 17.421 3.25127 1.59949
rclavicle 2.3059e-014 1.74931e-014
rhumerus -23.7573 4.20998 -67.3885
rradius 103.321
rwrist -78.3363
rhand -34.0989 -0.396993
rfingers 7.12502
rthumb -7.27507 -30.2519
lclavicle 2.3059e-014 1.74931e-014
lhumerus -9.12627 -66.6247 79.6933
lradius 92.739
lwrist 34.8113
lhand -3.84266 51.4879
lfingers 7.12502
lthumb 21.905 80.2679
rfemur -16.683 -2.17192 11.8363
rtibia 20.857
rfoot -5.20435 -11.6925
rtoes -36.1522
lfemur -31.6622 6.02151 -5.00943
ltibia 28.0813
lfoot -6.1373 11.309
ltoes -36.6339
3017
root 15.5205 17.4104 -8.06969 -305.777 -261.993 400.525
lowerback 16.7571 0.785842 -3.98462
upperback 4.55836 0.507295 -3.01135
thorax -4.51453 0.400922 -1.04265
lowerneck -21.4195 4.18035 6.2794
upperneck 37.4062 3.59053 4.09636
head 17.447 3.33399 1.63074
rclavicle -2.22639e-014 -6.20208e-014
rhumerus -24.2344 3.23709 -67.6169
rradius 103.2
rwrist -78.0495
rhand -34.8893 0.96136
rfingers 7.12502
rthumb -8.03796 -28.8658
lclavicle -2.22639e-014 -6.20208e-014
lhumerus -9.2459 -66.886 79.4902
lradius 92.3904
lwrist 39.2879
lhand -4.10761 52.6007
lfingers 7.12502
lthumb 21.6506 81.4102
rfemur -16.9185 -3.38042 13.3247
rtibia 21.0235
rfoot -6.23973 -11.6124
rtoes -36.5427
lfemur -31.3808 4.52622 -3.2663
ltibia 27.6449
lfoot -5.75829 13.0818
ltoes -35.2567
3018
root 15.4797 17.3941 -7.83168 -303.813 -261.78 402.478
lowerback 16.8581 0.62361 -3.50746
upperback 4.67765 0.384525 -2.80938
thorax -4.44098 0.336518 -1.07275
lowerneck -21.5281 4.38278 6.44331
upperneck 37.4466 3.83475 4.0392
head 17.5068 3.44149 1.63329
rclavicle -2.22639e-014 2.70347e-014
rhumerus -24.5133 2.25103 -67.7509
rradius 102.938
rwrist -77.5189
rhand -35.4074 2.39057
rfingers 7.12502
rthumb -8.53792 -27.4168
lclavicle -2.22639e-014 2.70347e-014
lhumerus -9.54857 -66.4426 79.4216
lradius 92.0234
lwrist 42.8626
lhand -3.51196 53.2157
lfingers 7.12502
lthumb 22.2225 81.9582
rfemur -17.2592 -4.43767 14.8901
rtibia 21.0498
rfoot -7.06397 -11.5078
rtoes -36.7872
lfemur -31.2382 2.80554 -1.37588
ltibia 27.2204
lfoot -5.31579 15.2206
ltoes -33.9766
3019
root 15.4362 17.3773 -7.59863 -301.424 -261.63 404.723
lowerback 16.8507 0.467028 -3.09316
upperback 4.78372 0.261127 -2.64823
thorax -4.32434 0.272101 -1.10943
lowerneck -21.523 4.65832 6.78648
upperneck 37.3292 4.16903 3.8462
head 17.4653 3.58461 1.54962
rclavicle -3.97569e-015 9.54166e-015
rhumerus -24.6928 1.35035 -67.8113
rradius 102.434
rwrist -76.0792
rhand -36.0873 3.35301
rfingers 7.12502
rthumb -9.19407 -26.4266
lclavicle -3.97569e-015 9.54166e-015
lhumerus -9.86171 -65.4909 79.3013
lradius 91.5747
lwrist 45.6614
lhand -3.20938 53.3537
lfingers 7.12502
lthumb 22.513 82.0613
rfemur -17.7684 -5.07608 16.3078
rtibia 21.0274
rfoot -7.86148 -11.266
rtoes -36.6684
lfemur -31.3049 1.21016 0.430855
ltibia 26.9656
lfoot -5.06674 17.4278
ltoes -32.2814
3020
root 15.3902 17.3718 -7.37617 -298.558 -261.554 407.387
lowerback 16.8371 0.316113 -2.7404
upperback 4.88881 0.133419 -2.52534
thorax -4.20619 0.206796 -1.1516
lowerneck -21.417 5.00148 7.1412
upperneck 37.0868 4.57963 3.71696
head 17.3342 3.76539 1.49859
rclavicle 2.38542e-015 4.29375e-014
rhumerus -24.8111 0.57933 -67.7555
rradius 101.75
rwrist -74.1361
rhand -37.3335 3.72221
rfingers 7.12502
rthumb -10.3963 -26.0008
lclavicle 2.38542e-015 4.29375e-014
lhumerus -9.83409 -64.1925 78.8221
lradius 90.8889
lwrist 47.7148
lhand -3.98849 53.5753
lfingers 7.12502
lthumb 21.765 82.3715
rfemur -18.3086 -5.38304 17.5488
rtibia 20.9515
rfoot -8.71549 -10.7533
rtoes -36.1815
lfemur -31.4933 0.121192 1.94957
ltibia 26.9015
lfoot -5.25535 19.2129
ltoes -29.342
3021
root 15.3361 17.3727 -7.16621 -295.949 -261.539 409.726
lowerback 16.9317 0.136404 -2.48888
upperback 4.94506 -0.058679 -2.46563
thorax -4.1981 0.111655 -1.19254
lowerneck -21.2884 5.37853 7.52798
upperneck 36.8617 5.00809 3.65818
head 17.2114 3.96916 1.47849
rclavicle -7.95139e-015 -2.8625e-014
rhumerus -24.9862 -0.172309 -67.5692
rradius 101.04
rwrist -72.8231
rhand -38.912 3.88282
rfingers 7.12502
rthumb -11.9188 -25.7579
lclavicle -7.95139e-015 -2.8625e-014
lhumerus -9.55992 -62.4855 78.1086
lradius 89.9156
lwrist 48.5443
lhand -5.69245 54.4048
lfingers 7.12502
lthumb 20.128 83.3821
rfemur -18.9574 -5.73013 18.6282
rtibia 20.9492
rfoot -9.41289 -9.94618
rtoes -36.0875
lfemur -31.9638 -0.301381 3.02644
ltibia 27.2013
lfoot -5.81656 20.1813
ltoes -23.5727
3022
root 15.274 17.3864 -6.97168 -293.567 -261.609 411.779
lowerback 17.0747 -0.031654 -2.28107
upperback 4.99252 -0.247046 -2.49621
thorax -4.22607 0.019975 -1.30539
lowerneck -21.1784 5.71121 7.94569
upperneck 36.6268 5.34407 3.62623
head 17.0915 4.14429 1.44679
rclavicle -2.38542e-015 -9.54166e-015
rhumerus -25.2722 -1.17454 -67.1844
rradius 100.388
rwrist -72.8859
rhand -40.3952 4.29798
rfingers 7.12502
rthumb -13.3488 -25.2544
lclavicle -2.38542e-015 -9.54166e-015
lhumerus -8.95946 -60.4658 77.1961
lradius 88.598
lwrist 47.926
lhand -7.78505 55.4379
lfingers 7.12502
lthumb 18.1157 84.6142
rfemur -19.7959 -6.28913 19.6035
rtibia 21.0514
rfoot -9.84516 -8.89419
rtoes -35.6322
lfemur -32.7219 -0.411978 3.78667
ltibia 27.9588
lfoot -7.09253 20.4392
ltoes -13.0077
